<?xml version="1.0" encoding="UTF-8" standalone="no"?>
<!DOCTYPE svg PUBLIC "-//W3C//DTD SVG 1.0//EN" "http://www.w3.org/TR/2001/PR-SVG-20010719/DTD/svg10.dtd">
<svg width="43cm" height="41cm" viewBox="168 133 849 819" xmlns="http://www.w3.org/2000/svg" xmlns:xlink="http://www.w3.org/1999/xlink">
  <g>
    <rect style="fill: #ffffff" x="182.35" y="159" width="105.65" height="79"/>
    <rect style="fill: none; fill-opacity:0; stroke-width: 2; stroke: #000000" x="182.35" y="159" width="105.65" height="79"/>
    <text font-size="12.7998" style="fill: #000000;text-anchor:middle;font-family:sans-serif;font-style:normal;font-weight:normal" x="235.175" y="202.4">
      <tspan x="235.175" y="202.4">API query</tspan>
    </text>
  </g>
  <g>
    <polygon style="fill: #ffffff" points="500.535,134.943 589.183,200.245 500.535,265.547 411.887,200.245 "/>
    <polygon style="fill: none; fill-opacity:0; stroke-width: 2; stroke: #000000" points="500.535,134.943 589.183,200.245 500.535,265.547 411.887,200.245 "/>
    <text font-size="12.7998" style="fill: #000000;text-anchor:middle;font-family:sans-serif;font-style:normal;font-weight:normal" x="500.535" y="196.145">
      <tspan x="500.535" y="196.145">Check for valid</tspan>
      <tspan x="500.535" y="212.145">Session</tspan>
    </text>
  </g>
  <g>
    <line style="fill: none; fill-opacity:0; stroke-width: 2; stroke: #000000" x1="288" y1="198.5" x2="401.797" y2="199.434"/>
    <polygon style="fill: #000000" points="409.297,199.496 399.256,204.414 401.797,199.434 399.339,194.414 "/>
    <polygon style="fill: none; fill-opacity:0; stroke-width: 2; stroke: #000000" points="409.297,199.496 399.256,204.414 401.797,199.434 399.339,194.414 "/>
  </g>
  <g>
    <rect style="fill: #ffffff" x="849.625" y="160" width="122.375" height="77"/>
    <rect style="fill: none; fill-opacity:0; stroke-width: 2; stroke: #000000" x="849.625" y="160" width="122.375" height="77"/>
    <text font-size="12.7998" style="fill: #000000;text-anchor:middle;font-family:sans-serif;font-style:normal;font-weight:normal" x="910.813" y="194.4">
      <tspan x="910.813" y="194.4">Session is</tspan>
      <tspan x="910.813" y="210.4">valid</tspan>
    </text>
  </g>
  <g>
    <line style="fill: none; fill-opacity:0; stroke-width: 2; stroke: #000000" x1="589.183" y1="200.245" x2="839.201" y2="198.889"/>
    <polygon style="fill: #000000" points="846.7,198.848 836.728,203.902 839.201,198.889 836.673,193.902 "/>
    <polygon style="fill: none; fill-opacity:0; stroke-width: 2; stroke: #000000" points="846.7,198.848 836.728,203.902 839.201,198.889 836.673,193.902 "/>
  </g>
  <g>
    <path style="fill: #ffffff" d="M 191.537 326 L 279.423,326 C 292.606,340.2 297,347.3 297,361.5 C 297,375.7 292.606,382.8 279.423,397 L 191.537,397 L 173.96,361.5 L 191.537,326z"/>
    <path style="fill: none; fill-opacity:0; stroke-width: 2; stroke: #000000" d="M 191.537 326 L 279.423,326 C 292.606,340.2 297,347.3 297,361.5 C 297,375.7 292.606,382.8 279.423,397 L 191.537,397 L 173.96,361.5 L 191.537,326"/>
    <text font-size="12.7998" style="fill: #000000;text-anchor:middle;font-family:sans-serif;font-style:normal;font-weight:normal" x="235.48" y="365.5">
      <tspan x="235.48" y="365.5">HTTP403</tspan>
    </text>
  </g>
  <g>
    <rect style="fill: #ffffff" x="439" y="323" width="123" height="76"/>
    <rect style="fill: none; fill-opacity:0; stroke-width: 2; stroke: #000000" x="439" y="323" width="123" height="76"/>
    <text font-size="12.7998" style="fill: #000000;text-anchor:middle;font-family:sans-serif;font-style:normal;font-weight:normal" x="500.5" y="356.9">
      <tspan x="500.5" y="356.9">Session is</tspan>
      <tspan x="500.5" y="372.9">invalid</tspan>
    </text>
  </g>
  <g>
    <line style="fill: none; fill-opacity:0; stroke-width: 2; stroke: #000000" x1="500.535" y1="265.547" x2="500.518" y2="312.276"/>
    <polygon style="fill: #000000" points="500.515,319.776 495.519,309.774 500.518,312.276 505.519,309.778 "/>
    <polygon style="fill: none; fill-opacity:0; stroke-width: 2; stroke: #000000" points="500.515,319.776 495.519,309.774 500.518,312.276 505.519,309.778 "/>
  </g>
  <g>
    <line style="fill: none; fill-opacity:0; stroke-width: 2; stroke: #000000" x1="439" y1="361" x2="306.736" y2="361.466"/>
    <polygon style="fill: #000000" points="299.236,361.492 309.218,356.457 306.736,361.466 309.254,366.457 "/>
    <polygon style="fill: none; fill-opacity:0; stroke-width: 2; stroke: #000000" points="299.236,361.492 309.218,356.457 306.736,361.466 309.254,366.457 "/>
  </g>
  <g>
    <polygon style="fill: #ffffff" points="911.35,368.068 1016.06,443.382 911.35,518.696 806.637,443.382 "/>
    <polygon style="fill: none; fill-opacity:0; stroke-width: 2; stroke: #000000" points="911.35,368.068 1016.06,443.382 911.35,518.696 806.637,443.382 "/>
    <text font-size="12.7998" style="fill: #000000;text-anchor:middle;font-family:sans-serif;font-style:normal;font-weight:normal" x="911.35" y="439.282">
      <tspan x="911.35" y="439.282">Request is correctly</tspan>
      <tspan x="911.35" y="455.282">formed?</tspan>
    </text>
  </g>
  <g>
    <line style="fill: none; fill-opacity:0; stroke-width: 2; stroke: #000000" x1="910.813" y1="237" x2="911.31" y2="358.332"/>
    <polygon style="fill: #000000" points="911.341,365.832 906.3,355.853 911.31,358.332 916.3,355.812 "/>
    <polygon style="fill: none; fill-opacity:0; stroke-width: 2; stroke: #000000" points="911.341,365.832 906.3,355.853 911.31,358.332 916.3,355.812 "/>
  </g>
  <g>
    <polygon style="fill: #ffffff" points="499.706,812.206 602,881.853 499.706,951.5 397.412,881.853 "/>
    <polygon style="fill: none; fill-opacity:0; stroke-width: 2; stroke: #000000" points="499.706,812.206 602,881.853 499.706,951.5 397.412,881.853 "/>
    <text font-size="12.7998" style="fill: #000000;text-anchor:middle;font-family:sans-serif;font-style:normal;font-weight:normal" x="499.706" y="877.753">
      <tspan x="499.706" y="877.753">Successful query</tspan>
      <tspan x="499.706" y="893.753">to Openstack?</tspan>
    </text>
  </g>
  <g>
    <rect style="fill: #ffffff" x="852" y="849.5" width="120.575" height="65"/>
    <rect style="fill: none; fill-opacity:0; stroke-width: 2; stroke: #000000" x="852" y="849.5" width="120.575" height="65"/>
    <text font-size="12.7998" style="fill: #000000;text-anchor:middle;font-family:sans-serif;font-style:normal;font-weight:normal" x="912.287" y="885.9">
      <tspan x="912.287" y="885.9">Yes</tspan>
    </text>
  </g>
  <g>
    <rect style="fill: #ffffff" x="438" y="422.5" width="125" height="75"/>
    <rect style="fill: none; fill-opacity:0; stroke-width: 2; stroke: #000000" x="438" y="422.5" width="125" height="75"/>
    <text font-size="12.7998" style="fill: #000000;text-anchor:middle;font-family:sans-serif;font-style:normal;font-weight:normal" x="500.5" y="463.9">
      <tspan x="500.5" y="463.9">No</tspan>
    </text>
  </g>
  <g>
    <polyline style="fill: none; fill-opacity:0; stroke-width: 2; stroke: #000000" points="806.637,443.382 722,442.5 722,461.5 572.736,460.092 "/>
    <polygon style="fill: #000000" points="565.236,460.021 575.283,455.116 572.736,460.092 575.188,465.115 "/>
    <polygon style="fill: none; fill-opacity:0; stroke-width: 2; stroke: #000000" points="565.236,460.021 575.283,455.116 572.736,460.092 575.188,465.115 "/>
  </g>
  <g>
    <polyline style="fill: none; fill-opacity:0; stroke-width: 2; stroke: #000000" points="438,460 373,459.5 372,379.5 302.891,379.281 "/>
    <polygon style="fill: #000000" points="295.391,379.257 305.407,374.289 302.891,379.281 305.375,384.289 "/>
    <polygon style="fill: none; fill-opacity:0; stroke-width: 2; stroke: #000000" points="295.391,379.257 305.407,374.289 302.891,379.281 305.375,384.289 "/>
  </g>
  <g>
    <rect style="fill: #ffffff" x="438.1" y="702" width="125" height="75"/>
    <rect style="fill: none; fill-opacity:0; stroke-width: 2; stroke: #000000" x="438.1" y="702" width="125" height="75"/>
    <text font-size="12.7998" style="fill: #000000;text-anchor:middle;font-family:sans-serif;font-style:normal;font-weight:normal" x="500.6" y="743.4">
      <tspan x="500.6" y="743.4">No</tspan>
    </text>
  </g>
  <g>
    <rect style="fill: #ffffff" x="184.1" y="848" width="120.575" height="65"/>
    <rect style="fill: none; fill-opacity:0; stroke-width: 2; stroke: #000000" x="184.1" y="848" width="120.575" height="65"/>
    <text font-size="12.7998" style="fill: #000000;text-anchor:middle;font-family:sans-serif;font-style:normal;font-weight:normal" x="244.387" y="884.4">
      <tspan x="244.387" y="884.4">Yes</tspan>
    </text>
  </g>
  <g>
    <path style="fill: #ffffff" d="M 193.363 638.5 L 289.727,638.5 C 304.182,654.3 309,662.2 309,678 C 309,693.8 304.182,701.7 289.727,717.5 L 193.363,717.5 L 174.09,678 L 193.363,638.5z"/>
    <path style="fill: none; fill-opacity:0; stroke-width: 2; stroke: #000000" d="M 193.363 638.5 L 289.727,638.5 C 304.182,654.3 309,662.2 309,678 C 309,693.8 304.182,701.7 289.727,717.5 L 193.363,717.5 L 174.09,678 L 193.363,638.5"/>
    <text font-size="12.7998" style="fill: #000000;text-anchor:middle;font-family:sans-serif;font-style:normal;font-weight:normal" x="241.545" y="674">
      <tspan x="241.545" y="674">HTTP 200</tspan>
      <tspan x="241.545" y="690">+ JSON</tspan>
    </text>
  </g>
  <g>
    <polygon style="fill: #ffffff" points="499.663,532.444 603.161,599.91 499.663,667.376 396.165,599.91 "/>
    <polygon style="fill: none; fill-opacity:0; stroke-width: 2; stroke: #000000" points="499.663,532.444 603.161,599.91 499.663,667.376 396.165,599.91 "/>
    <text font-size="12.7998" style="fill: #000000;text-anchor:middle;font-family:sans-serif;font-style:normal;font-weight:normal" x="499.663" y="595.81">
      <tspan x="499.663" y="595.81">Problem with</tspan>
      <tspan x="499.663" y="611.81">finding the query?</tspan>
    </text>
  </g>
  <g>
    <path style="fill: #ffffff" d="M 187.651 511.5 L 277.109,511.5 C 290.527,527.1 295,534.9 295,550.5 C 295,566.1 290.527,573.9 277.109,589.5 L 187.651,589.5 L 169.76,550.5 L 187.651,511.5z"/>
    <path style="fill: none; fill-opacity:0; stroke-width: 2; stroke: #000000" d="M 187.651 511.5 L 277.109,511.5 C 290.527,527.1 295,534.9 295,550.5 C 295,566.1 290.527,573.9 277.109,589.5 L 187.651,589.5 L 169.76,550.5 L 187.651,511.5"/>
    <text font-size="12.7998" style="fill: #000000;text-anchor:middle;font-family:sans-serif;font-style:normal;font-weight:normal" x="232.38" y="554.5">
      <tspan x="232.38" y="554.5">HTTP404</tspan>
    </text>
  </g>
  <g>
    <polyline style="fill: none; fill-opacity:0; stroke-width: 2; stroke: #000000" points="396.165,599.91 362,599.5 361,551.5 304.735,550.647 "/>
    <polygon style="fill: #000000" points="297.236,550.534 307.31,545.686 304.735,550.647 307.159,555.685 "/>
    <polygon style="fill: none; fill-opacity:0; stroke-width: 2; stroke: #000000" points="297.236,550.534 307.31,545.686 304.735,550.647 307.159,555.685 "/>
  </g>
  <g>
    <line style="fill: none; fill-opacity:0; stroke-width: 2; stroke: #000000" x1="500.219" y1="531.853" x2="500.42" y2="507.236"/>
    <polygon style="fill: #000000" points="500.482,499.736 505.4,509.777 500.42,507.236 495.4,509.695 "/>
    <polygon style="fill: none; fill-opacity:0; stroke-width: 2; stroke: #000000" points="500.482,499.736 505.4,509.777 500.42,507.236 495.4,509.695 "/>
  </g>
  <g>
    <line style="fill: none; fill-opacity:0; stroke-width: 2; stroke: #000000" x1="911.35" y1="518.696" x2="912.26" y2="839.764"/>
    <polygon style="fill: #000000" points="912.281,847.264 907.253,837.278 912.26,839.764 917.253,837.25 "/>
    <polygon style="fill: none; fill-opacity:0; stroke-width: 2; stroke: #000000" points="912.281,847.264 907.253,837.278 912.26,839.764 917.253,837.25 "/>
  </g>
  <g>
    <line style="fill: none; fill-opacity:0; stroke-width: 2; stroke: #000000" x1="852" y1="882" x2="611.736" y2="881.859"/>
    <polygon style="fill: #000000" points="604.236,881.854 614.239,876.86 611.736,881.859 614.233,886.86 "/>
    <polygon style="fill: none; fill-opacity:0; stroke-width: 2; stroke: #000000" points="604.236,881.854 614.239,876.86 611.736,881.859 614.233,886.86 "/>
  </g>
  <g>
    <line style="fill: none; fill-opacity:0; stroke-width: 2; stroke: #000000" x1="499.706" y1="812.206" x2="500.353" y2="786.733"/>
    <polygon style="fill: #000000" points="500.543,779.235 505.288,789.359 500.353,786.733 495.291,789.105 "/>
    <polygon style="fill: none; fill-opacity:0; stroke-width: 2; stroke: #000000" points="500.543,779.235 505.288,789.359 500.353,786.733 495.291,789.105 "/>
  </g>
  <g>
    <line style="fill: none; fill-opacity:0; stroke-width: 2; stroke: #000000" x1="500.6" y1="702" x2="499.927" y2="677.108"/>
    <polygon style="fill: #000000" points="499.724,669.611 504.992,679.472 499.927,677.108 494.996,679.743 "/>
    <polygon style="fill: none; fill-opacity:0; stroke-width: 2; stroke: #000000" points="499.724,669.611 504.992,679.472 499.927,677.108 494.996,679.743 "/>
  </g>
  <g>
    <polyline style="fill: none; fill-opacity:0; stroke-width: 2; stroke: #000000" points="244.387,848 244,801.5 382,801.5 383,677.5 318.736,677.934 "/>
    <polygon style="fill: #000000" points="311.236,677.985 321.202,672.917 318.736,677.934 321.27,682.917 "/>
    <polygon style="fill: none; fill-opacity:0; stroke-width: 2; stroke: #000000" points="311.236,677.985 321.202,672.917 318.736,677.934 321.27,682.917 "/>
  </g>
  <g>
    <line style="fill: none; fill-opacity:0; stroke-width: 2; stroke: #000000" x1="397.412" y1="881.853" x2="314.41" y2="880.642"/>
    <polygon style="fill: #000000" points="306.911,880.533 316.983,875.679 314.41,880.642 316.837,885.678 "/>
    <polygon style="fill: none; fill-opacity:0; stroke-width: 2; stroke: #000000" points="306.911,880.533 316.983,875.679 314.41,880.642 316.837,885.678 "/>
  </g>
</svg>
