<?xml version="1.0" encoding="UTF-8" standalone="no"?>
<!-- Created with Inkscape (http://www.inkscape.org/) -->

<svg
   xmlns:dc="http://purl.org/dc/elements/1.1/"
   xmlns:cc="http://creativecommons.org/ns#"
   xmlns:rdf="http://www.w3.org/1999/02/22-rdf-syntax-ns#"
   xmlns:svg="http://www.w3.org/2000/svg"
   xmlns="http://www.w3.org/2000/svg"
   xmlns:sodipodi="http://sodipodi.sourceforge.net/DTD/sodipodi-0.dtd"
   xmlns:inkscape="http://www.inkscape.org/namespaces/inkscape"
   version="1.1"
   id="svg2"
   xml:space="preserve"
   width="145"
   height="100"
   viewBox="0 0 775.14667 494.54666"
   sodipodi:docname="csc_logo.svg"
   inkscape:version="0.92.2 (5c3e80d, 2017-08-06)"><metadata
     id="metadata8"><rdf:RDF><cc:Work
         rdf:about=""><dc:format>image/svg+xml</dc:format><dc:type
           rdf:resource="http://purl.org/dc/dcmitype/StillImage" /><dc:title /></cc:Work></rdf:RDF></metadata><defs
     id="defs6"><clipPath
       clipPathUnits="userSpaceOnUse"
       id="clipPath20"><path
         d="M 0,0 H 5813.61 V 3709 H 0 Z"
         id="path18"
         inkscape:connector-curvature="0" /></clipPath></defs><sodipodi:namedview
     pagecolor="#ffffff"
     bordercolor="#666666"
     borderopacity="1"
     objecttolerance="10"
     gridtolerance="10"
     guidetolerance="10"
     inkscape:pageopacity="0"
     inkscape:pageshadow="2"
     inkscape:window-width="1920"
     inkscape:window-height="1043"
     id="namedview4"
     showgrid="false"
     inkscape:zoom="0.45797784"
     inkscape:cx="116.81788"
     inkscape:cy="247.27333"
     inkscape:window-x="0"
     inkscape:window-y="0"
     inkscape:window-maximized="1"
     inkscape:current-layer="g35" /><g
     id="g10"
     inkscape:groupmode="layer"
     inkscape:label="ink_ext_XXXXXX"
     transform="matrix(1.3333333,0,0,-1.3333333,0,494.54667)"><g
       id="g12"
       transform="scale(0.1)"><g
         clip-path="url(#clipPath20)"
         id="g16"><g
           id="g35"><path
             d="m 2918.05,779.801 c 0,0.078 -66.19,10.39 -67.54,41.289 C 2790.41,2173.07 2666.46,2120.57 67.6172,2173.07 18.8086,2174.12 0,2244.49 0,2244.49 H 2918.05 V 779.801"
             style="fill:#035b6e;fill-opacity:1;fill-rule:nonzero;stroke:none"
             id="path22"
             inkscape:connector-curvature="0" /><path
             d="m 2895.55,3709.14 c 0,-0.1 66.23,-10.41 67.61,-41.33 60.12,-1351.99 184.03,-1299.45 2782.84,-1351.99 48.9,-0.98 67.61,-71.39 67.61,-71.39 H 2895.55 v 1464.71"
             style="fill:#82064a;fill-opacity:1;fill-rule:nonzero;stroke:none"
             id="path24"
             inkscape:connector-curvature="0" /><path
             d="m 3745.76,457.621 -6.83,4.098 c -2.04,-2.071 -6.12,-4.75 -10.86,-4.75 -6.21,0 -21.19,12.91 -46.41,26.601 -25.27,13.602 -61.41,26.571 -111.19,26.571 -148.71,0 -229.22,-122.782 -229.22,-255.02 C 3341.25,122.789 3421.76,0 3567.75,0 c 114.57,0 146.61,64.082 175.26,64.082 2.75,0 4.74,-1.3125 6.15,-1.3125 l 5.39,2.6797 -60.68,83.2618 -6.82,-4.16 c 0.7,-3.34 1.37,-6.821 1.37,-10.199 0,-33.391 -58.62,-67.5004 -115.18,-66.1528 -107.79,2.0703 -151.48,92.7808 -151.48,188.2808 0,94.09 46.37,185.45 149.41,185.45 54.59,0 110.49,-28.649 110.49,-55.188 0,-6.121 1.31,-10.242 0,-12.972 l 8.16,-3.418 z M 2686.54,57.9297 l 8.19,-3.3399 c 2.71,3.3399 6.85,4.75 10.27,5.4102 7.48,0.6992 62.71,-60 189.59,-60 107.73,0 181.41,62.1094 181.41,154.121 0,202.559 -295.32,103.77 -295.32,214.16 0,42.289 25.2,73.649 102.33,73.649 59.96,0 130.88,-25.879 130.88,-62.09 0,-2.668 0,-5.41 -0.65,-7.418 l 8.85,-4.141 47.75,103.008 -6.81,2.672 c -5.45,-6.09 -11.64,-7.5 -15.65,-7.5 -8.18,0 -23.2,10.98 -48.47,21.859 -25.2,10.942 -60.69,21.821 -111.84,21.821 -107.79,0 -184.16,-51.821 -184.16,-144.539 0,-194.473 292.62,-91.461 292.62,-215.602 0,-56.5586 -40.96,-81.8008 -100.3,-81.8008 -68.84,0 -152.09,38.2108 -152.09,74.3828 0,3.379 0,6.719 0.67,10.188 l -7.52,4.121 z m -266.68,399.6913 -6.79,4.098 c -2.05,-2.071 -6.16,-4.75 -10.9,-4.75 -6.15,0 -21.17,12.91 -46.37,26.601 -25.29,13.602 -61.44,26.571 -111.21,26.571 -148.67,0 -229.18,-122.782 -229.18,-255.02 C 2015.41,122.789 2095.92,0 2241.89,0 c 114.54,0 146.63,64.082 175.22,64.082 2.75,0 4.84,-1.3125 6.21,-1.3125 l 5.49,2.6797 -60.78,83.2618 -6.82,-4.16 c 0.67,-3.34 1.41,-6.821 1.41,-10.199 0,-33.391 -58.66,-67.5004 -115.32,-66.1528 -107.75,2.0703 -151.38,92.7808 -151.38,188.2808 0,94.09 46.37,185.45 149.37,185.45 54.57,0 110.51,-28.649 110.51,-55.188 0,-6.121 1.33,-10.242 0,-12.972 l 8.16,-3.418 55.9,87.269"
             style="fill:#000000;fill-opacity:1;fill-rule:nonzero;stroke:none"
             id="path26"
             inkscape:connector-curvature="0" /></g></g></g></g></svg>
